<svg width="794" height="196" viewBox="0 0 794 196" fill="none" xmlns="http://www.w3.org/2000/svg">
<path d="M268.54 18.9C270.57 16.86 272.64 14.5401 273.15 11.6001C271.55 10.1901 269.25 10.69 267.35 10.98C259.76 12.38 253.67 17.43 247.06 21.04C244.05 19.54 241.06 18 238.12 16.36C239.23 15.54 240.34 14.6901 241.46 13.8501C240.3 11.9701 239.11 10.11 237.85 8.30005C235.46 9.60005 233.22 11.18 230.73 12.29C229.17 12.02 227.79 11.1901 226.4 10.4901C219.73 6.92005 212.94 3.58004 206.25 0.0400391C205.09 0.770039 203.93 1.50004 202.79 2.23004C209.22 8.64004 215.84 14.88 222.37 21.2C225.59 24.01 228.24 27.39 230.28 31.15C224.62 34.52 219.06 38.0401 213.72 41.8801C208.98 41.9801 204.54 39.56 199.82 39.34C198.54 39.48 197.36 40.03 196.16 40.43C199.56 43.54 203.36 46.18 206.9 49.12C206.45 50.05 206 50.98 205.57 51.91C206.64 52.04 207.72 52.17 208.8 52.29C209.61 56.73 210.27 61.19 211.32 65.58C212.46 64.58 214.03 63.81 214.48 62.25C215.77 58.43 216.25 54.37 217.66 50.59C218.15 49.12 219.84 48.7301 221.05 48.0201C226.1 45.7601 230.7 42.68 235.45 39.87C239.61 45.36 240.68 52.25 242.67 58.66C244.55 65.01 246.28 71.42 248.29 77.74C249.44 77.05 250.61 76.3701 251.78 75.6701C251.9 67.3801 251.98 59.09 252.02 50.8C252.14 49.81 251.9 48.5 252.93 47.91C255 46.43 257.22 45.1701 259.31 43.7101C258.26 41.8601 257.19 40.03 256.12 38.19C254.81 38.69 253.52 39.2 252.23 39.7C252.17 36.37 252.23 33.03 252.34 29.69C257.78 26.18 263.82 23.45 268.51 18.9H268.54Z" fill="black"/>
<path d="M37.52 73.21C32.74 64.97 27.68 56.89 23.07 48.55C27.57 50.55 31.88 52.98 36.45 54.82C48.06 59.73 60.23 63.3 72.65 65.46C97.11 69.78 122.86 68.91 146.37 60.46C152.13 58.48 157.56 55.72 163 53.01C158.92 60.15 154.54 67.11 150.26 74.14L168.06 65.25C173.98 55.43 180.03 45.69 185.94 35.87C187.32 33.43 189.56 31.06 189.12 28.04C188.94 25.34 186.34 23.12 183.63 23.34C181.65 23.29 180.29 24.9 179.09 26.25C171.17 35.4 160.93 42.32 149.96 47.29C136.35 53.22 121.56 56.35 106.74 56.84C91.13 57.48 75.43 55.69 60.38 51.48C43.05 46.8 26.47 39.15 11.98 28.53C9.93 27.02 8.21 24.34 5.31 24.72C1.16 24.84 -1.25 30.16 0.91 33.54C28.98 81.05 57.14 128.53 85.21 176.05C86.78 178.78 88.49 182.57 92.23 182.38C96.62 182.51 99.18 176.87 96.82 173.38C77.05 139.99 57.3 106.58 37.52 73.19V73.21Z" fill="black"/>
<path d="M197.26 53.43C195.11 52.67 192.9 53.74 191.33 55.2C184.76 61.03 177.7 66.28 170.25 70.92C168.1 72.23 165.97 73.57 163.72 74.7C163.69 74.72 163.66 74.74 163.64 74.75C159.38 77.22 144.41 83.48 143.49 83.74C134.79 86.71 125.76 88.71 116.6 89.56C102.79 90.51 88.61 89.63 75.51 84.86C73.54 84.16 71.32 83.34 69.25 84.21C66.75 85.36 65.52 88.63 66.5 91.17C67.26 92.89 68.45 94.37 69.44 95.95C81.66 114.78 93.88 133.6 106.09 152.42C107.14 154.14 109.07 155.36 111.14 155.05C113.35 154.99 114.72 153.05 115.75 151.34C125.29 135.45 135.09 119.72 144.56 103.79C140.64 104.77 136.82 106.11 132.91 107.13C131.48 107.59 129.69 107.8 128.91 109.28C122.75 119.35 116.67 129.48 110.48 139.53C108.76 137.17 107.21 134.7 105.63 132.25C98.43 121.08 91.14 109.98 83.94 98.81C85.6 99.01 87.24 99.24 88.88 99.5C103.1 101.72 117.73 101.34 131.8 98.26C139.06 96.64 146.31 94.74 153.14 91.74C170.06 85.1 185.35 74.82 198.92 62.81C202.08 60.36 201.04 54.65 197.25 53.43H197.26Z" fill="black"/>
<path d="M394.45 11.11H425.5L376.93 154.03H348.46L300.29 11.11H332.34L362.99 119.39H363.39L394.44 11.11H394.45Z" fill="black"/>
<path d="M474.29 111.24H418.76V85.36H474.29V111.24Z" fill="black"/>
<path d="M523.86 48.14H541.18V68.05H523.86V125.57C523.86 131.74 524.06 134.13 535.41 134.13C537.2 134.13 539.19 133.93 541.18 133.73V154.83C536.8 155.03 532.42 155.23 528.04 155.23H524.46C500.37 155.23 496 146.07 496 132.34V68.05H481.67V48.14H496V19.48H523.87V48.14H523.86Z" fill="black"/>
<path d="M558.7 48.14H585.37V66.45H585.77C591.54 55.7 597.91 45.35 614.83 45.35C616.62 45.35 618.41 45.55 620.2 45.75V74.01C617.81 73.61 614.83 73.61 612.24 73.61C590.54 73.61 586.56 87.15 586.56 98.89V154.03H558.69V48.13L558.7 48.14Z" fill="black"/>
<path d="M665 35.6H637.13V9.71997H665V35.6ZM665 48.14V154.04H637.13V48.14H665Z" fill="black"/>
<path d="M717.76 63.47H718.16C723.33 55.11 731.1 45.36 749.81 45.36C773.1 45.36 793.8 63.27 793.8 99.9C793.8 128.96 780.66 156.83 749.21 156.83C729.7 156.83 722.74 146.28 719.35 140.51H718.95V195.25H691.08V48.15H717.75V63.48L717.76 63.47ZM742.24 133.93C760.15 133.93 765.13 114.42 765.13 101.88C765.13 85.16 759.16 69.44 741.44 69.44C722.33 69.44 717.75 86.56 717.75 103.48C717.75 119.2 724.52 133.93 742.23 133.93H742.24Z" fill="black"/>
</svg>
